<?xml version="1.0" encoding="UTF-8"?>
<!DOCTYPE svg PUBLIC "-//W3C//DTD SVG 1.1//EN" "http://www.w3.org/Graphics/SVG/1.1/DTD/svg11.dtd">
<!-- Creator: CorelDRAW X7 -->
<svg xmlns="http://www.w3.org/2000/svg" xml:space="preserve" width="120mm" height="90mm" version="1.1" style="shape-rendering:geometricPrecision; text-rendering:geometricPrecision; image-rendering:optimizeQuality; fill-rule:evenodd; clip-rule:evenodd"
viewBox="0 0 12000000 9000000"
 xmlns:xlink="http://www.w3.org/1999/xlink"
 enable-background="new 0 0 334 84"
 xmlns:dc="http://purl.org/dc/elements/1.1/"
 xmlns:cc="http://creativecommons.org/ns#"
 xmlns:rdf="http://www.w3.org/1999/02/22-rdf-syntax-ns#"
 xmlns:svg="http://www.w3.org/2000/svg"
 xmlns:sodipodi="http://sodipodi.sourceforge.net/DTD/sodipodi-0.dtd"
 xmlns:inkscape="http://www.inkscape.org/namespaces/inkscape"
 inkscape:version="0.92.3 (2405546, 2018-03-11)"
 sodipodi:docname="aeromexico.svg">
 <defs>
  <style type="text/css">
   <![CDATA[
    .fil1 {fill:#FDD100}
    .fil0 {fill:#013BC0}
   ]]>
  </style>
 </defs>
 <g id="Layer_x0020_1">
  <metadata id="CorelCorpID_0Corel-Layer"/>
  <sodipodi:namedview pagecolor="#ffffff" bordercolor="#666666" borderopacity="1" objecttolerance="10" gridtolerance="10" guidetolerance="10" inkscape:pageopacity="0" inkscape:pageshadow="2" inkscape:window-width="1280" inkscape:window-height="1004" id="namedview198" showgrid="false" fit-margin-top="0" fit-margin-left="0" fit-margin-right="0" fit-margin-bottom="0" inkscape:zoom="8.7486948" inkscape:cx="247.11667" inkscape:cy="40.949792" inkscape:window-x="-8" inkscape:window-y="-8" inkscape:window-maximized="1" inkscape:current-layer="g3"/>
  <sodipodi:namedview id="base" pagecolor="#00ffff" bordercolor="#666666" borderopacity="1.0" inkscape:pageopacity="0" inkscape:pageshadow="2" inkscape:zoom="1.4" inkscape:cx="451.73565" inkscape:cy="-10.201303" inkscape:document-units="px" inkscape:current-layer="layer1" showgrid="false" fit-margin-left="0.3" fit-margin-top="0.3" fit-margin-right="0.3" fit-margin-bottom="0.3" units="px" inkscape:window-width="1920" inkscape:window-height="1001" inkscape:window-x="-9" inkscape:window-y="-9" inkscape:window-maximized="1"/>
  <g id="_1583264791264">
   <path class="fil0" d="M6000000 783990c1384370,0 2507080,1122650 2507080,2507070 0,1384350 -1122710,2507080 -2507080,2507080 -1384370,0 -2507080,-1122730 -2507080,-2507080 0,-1384420 1122710,-2507070 2507080,-2507070z"/>
   <path class="fil0" d="M2366360 7456810l261150 0 178300 -749520 178320 749520 261130 0 -177540 -746270c-17440,-73460 -33140,-139400 -50230,-211210 -32080,-85360 -114440,-146110 -210980,-146110 -101470,0 -187310,67120 -215530,159370 -16940,71200 -32760,137720 -50530,212370l-174090 731850zm6552470 -1104080c14500,0 28800,560 43020,1670l313850 -410 0 255970c-126780,0 -242710,410 -356870,410 -162570,0 -294410,131840 -294410,294410 0,162540 131830,294380 294410,294380 25790,0 50790,-3320 74640,-9580l0 -285560 282230 0 0 552790 -282230 0 0 -5080c-24380,3320 -49330,5090 -74640,5090 -304840,0 -552050,-247210 -552050,-552040 0,-304860 247210,-552050 552050,-552050zm-1288930 490l-203670 0 0 1103590 282220 0 0 -846250 207280 0c75690,0 137110,61450 137110,137140 0,75680 -61420,137140 -137110,137140l-161860 0 291580 571970 276270 0 -201710 -395710c113610,-65460 190180,-188190 190180,-328670 0,-209340 -169870,-379210 -379200,-379210l-301090 0zm1693490 1103590l261110 0 178350 -749520 178320 749520 261140 0 -177570 -746270c-17440,-73460 -33160,-139400 -50240,-211210 -32050,-85360 -114430,-146110 -210940,-146110 -101500,0 -187350,67120 -215550,159370 -16960,71200 -32770,137720 -50530,212370l-174090 731850zm-4337020 0l261150 0 178320 -749520 105090 441670c25140,105700 61550,216840 202230,216840 156100,0 182060,-131940 209060,-245450l98290 -413060 178320 749520 261160 0 -177560 -746270c-17470,-73460 -33190,-139400 -50280,-211210 -32020,-85360 -114390,-146110 -210940,-146110 -101500,0 -187330,67120 -215540,159370 -16930,71200 -32760,137720 -50500,212370l-41970 176450 -45440 -190870c-17470,-73460 -33180,-139400 -50240,-211210 -32080,-85360 -114440,-146110 -210990,-146110 -101470,0 -187320,67120 -215530,159370 -16920,71200 -32760,137720 -50490,212370l-174140 731850zm1513600 0l261180 0 178290 -749520 178330 749520 261160 0 -177570 -746270c-17460,-73460 -33130,-139400 -50260,-211210 -32040,-85360 -114430,-146110 -210960,-146110 -101480,0 -187300,67120 -215520,159370 -16940,71200 -32760,137720 -50530,212370l-174120 731850zm-2427930 0l261130 0 178350 -749520 178340 749520 261120 0 -177560 -746270c-17430,-73460 -33160,-139400 -50220,-211210 -32080,-85360 -114440,-146110 -210970,-146110 -101490,0 -187310,67120 -215540,159370 -16960,71200 -32760,137720 -50520,212370l-174130 731850zm-492040 -1103590c148770,0 297570,70 446410,70l0 250050 -115530 0 -305360 0 -25520 3520c-39300,11120 -68180,47290 -68180,90160 0,51730 41970,93730 93700,93730l119470 0c113780,0 164460,-1780 241540,69000 68450,62860 111440,153080 111440,253230 0,189730 -154110,343830 -343840,343830 -148790,0 -297580,-90 -446380,-90l0 -250010 115510 0 305380 0 25490 -3550c39320,-11140 68180,-47300 68180,-90180 0,-51700 -41990,-93700 -93670,-93700l-142570 0c-94750,0 -166680,-12730 -236340,-86640 -57960,-61570 -93530,-144460 -93530,-235630 0,-189700 154100,-343790 343800,-343790zm-1234720 0l-282240 0 0 783470c0,34750 -28410,63150 -63140,63150l-202210 0 0 256970 290640 0c141330,0 256950,-115650 256950,-256970l0 -846620z"/>
   <path class="fil0" d="M6000000 783990c1384370,0 2507080,1122650 2507080,2507070 0,1384350 -1122710,2507080 -2507080,2507080 -1384370,0 -2507080,-1122730 -2507080,-2507080 0,-1384420 1122710,-2507070 2507080,-2507070z"/>
   <path class="fil1" d="M8304240 2302080c-213160,-66840 -423030,-116720 -630860,-154640 -15030,-111170 -32950,-220470 -53250,-330840 168620,42140 338480,92740 510310,152760 65870,105910 124080,217080 173800,332720zm-1662890 -1435130c104730,27670 206750,61920 305620,102330 101540,342850 176380,677440 224840,1030960 55100,401510 74330,838840 72520,1267070 -80,340860 -89260,632320 -320930,881570 -230150,247680 -558700,402710 -923400,402710 -696030,0 -1260520,-564510 -1260520,-1260530 0,-566600 374060,-1004040 888610,-1147170 360890,-100350 760100,-56100 1130990,-27110 7530,122230 14040,220580 18200,341660 -324070,-17770 -760560,-55510 -1081040,36930 -368080,106130 -621970,386590 -621970,795690 0,511130 414560,925730 925730,925730 214800,-10 412550,-73220 569660,-196040 293920,-229810 322140,-618280 314420,-995830 -3780,-184390 -6020,-366180 -9550,-525630 -4700,-209170 -20680,-423530 -47650,-643350 -39030,-318150 -101140,-647600 -185530,-988990zm371100 130150c119030,52640 233290,114140 341760,183890 83330,270230 149820,538780 200220,819250 58110,323080 94000,669390 114350,1015440 16070,273130 -9860,546480 -91650,795140 -217290,660650 -774580,1165130 -1577130,1165130 -930370,0 -1684910,-754540 -1684910,-1684910 0,-930350 754540,-1653280 1684910,-1653280 250040,-2500 489970,5920 731250,28470 7980,124330 16560,248120 24400,371360 -130630,-12280 -260720,-24680 -392120,-31690 -172420,-9170 -364320,-20040 -536940,1400 -650320,80650 -1152670,610300 -1152670,1283740 0,732240 627910,1326040 1326080,1326120 608770,30 1116470,-409250 1269840,-967610 56490,-205480 54080,-410490 40540,-624630 -11630,-184390 -21590,-366180 -31990,-525630 -13580,-209170 -38700,-423530 -75040,-643350 -45880,-277570 -109690,-563700 -190900,-858840zm1318490 1369360c40370,101730 74250,206760 101210,314500 -244010,-71990 -483540,-119550 -720280,-151770 -7250,-111160 -17680,-217980 -30790,-322750 223470,40930 446090,93510 649860,160020z"/>
   <path class="fil0" d="M1749410 7688660l0 397080 28260 0 0 -397080 -28260 0zm253280 397080l28320 0 0 -174990c0,-8840 1760,-18270 3530,-25320 11180,-36530 45370,-64840 84820,-64840 58340,0 78380,46580 78380,97810l0 167340 28280 0 0 -169700c0,-106010 -71840,-119560 -98980,-119560 -45940,0 -81890,25910 -97210,57730l-1170 0 -1750 -51290 -26540 0c1780,22410 2320,41840 2320,67810l0 215010zm633390 -418880l0 179680 -1180 0c-12370,-24750 -43600,-50060 -92520,-50060 -69500,0 -127810,58880 -127230,153130 0,84280 51820,142710 121930,142710 52450,0 86040,-28990 100760,-60180l1150 0 2360 53600 25350 0c-1760,-20060 -2360,-44770 -2360,-66010l0 -352870 -28260 0zm0 304580c0,8800 -600,15890 -2950,23540 -11760,46590 -50080,73650 -90750,73650 -67140,0 -98960,-58320 -98960,-121940 0,-73040 38870,-126650 100740,-126650 45960,0 79530,31240 88970,68910 2350,7690 2950,18260 2950,25920l0 56570zm353450 -174960c-70060,0 -133690,53590 -133690,150210 0,88360 56530,145630 129570,145630 63050,0 135500,-45460 135500,-150910 0,-86050 -53000,-144930 -131380,-144930zm-580 23560c74830,0 103690,71250 103690,123130 0,72460 -46540,125460 -105440,125460 -57750,0 -103090,-53000 -103090,-123700 0,-60680 32390,-124890 104840,-124890zm324060 265700l28280 0 0 -174990c0,-8840 1760,-18270 3540,-25320 11190,-36530 45330,-64840 84830,-64840 58310,0 78350,46580 78350,97810l0 167340 28250 0 0 -169700c0,-106010 -71840,-119560 -98980,-119560 -45900,0 -81850,25910 -97180,57730l-1170 0 -1790 -51290 -26470 0c1750,22410 2340,41840 2340,67810l0 215010zm648650 -144330c1180,-5350 1180,-9460 1180,-17110 0,-40640 -17690,-127820 -110190,-127820 -73020,0 -127250,58880 -127250,153130 0,83070 50710,142080 131970,142080 49510,0 78370,-12450 88970,-18340l-7080 -21810c-15880,7670 -37110,15900 -78330,15900 -58920,0 -107850,-35920 -107850,-126030l208580 0zm-207390 -22430c5340,-43580 32430,-98940 94870,-98940 68340,0 84840,59510 84250,98940l-179120 0zm378840 153220c18860,11770 44770,19490 71870,19490 57730,0 95450,-32480 95450,-80770 0,-43000 -27110,-65990 -73070,-83680 -38290,-15880 -58300,-28860 -58300,-58310 0,-25930 18830,-48890 54800,-48890 28270,0 46520,9980 56540,17080l10590 -22990c-14160,-10030 -36510,-17650 -62450,-17650 -54790,0 -87210,35920 -87210,76550 0,34180 25370,59530 71910,77190 40670,16500 59480,33000 59480,64210 0,29470 -21180,53630 -65960,53630 -25340,0 -48330,-10020 -63640,-19470l-10010 23610zm390030 13540l0 -282820 -28270 0 0 282820 28270 0zm-14130 -388260c-12970,0 -22990,11790 -22990,24770 0,12960 8850,24130 21810,24130 14720,0 23550,-11170 23550,-24130 0,-13570 -9420,-24770 -22370,-24770zm405340 210320c0,-50060 -15920,-111320 -97800,-111320 -25350,0 -57140,7040 -83090,24110l8860 20660c20590,-14740 46530,-21210 71280,-21210 67130,-640 72450,55360 72450,83050l0 7660c-115430,-1170 -172590,38280 -172590,103680 0,37710 25910,77890 83050,77890 45360,0 76590,-25460 90730,-47230l1160 0 4110 40650 25960 0c-3550,-21820 -4120,-44770 -4120,-67180l0 -110760zm-28300 87180c0,4740 -570,11230 -2960,17120 -9420,27680 -36500,56530 -83640,56530 -29450,0 -56540,-18270 -56540,-58910 0,-67750 81270,-77160 143140,-75410l0 60670zm515090 -306320l0 397080 28280 0 0 -198550 219170 0 0 198550 28260 0 0 -397080 -28260 0 0 174950 -219170 0 0 -174950 -28280 0zm528440 397080l0 -282820 -28250 0 0 282820 28250 0zm-14120 -388260c-12980,0 -22970,11790 -22970,24770 0,12960 8840,24130 21790,24130 14730,0 23580,-11170 23580,-24130 10,-13570 -9450,-24770 -22400,-24770zm454850 178510c0,-29450 560,-51830 2340,-73070l-25920 0 -1770 47720 -1170 0c-11800,-23520 -39490,-54160 -95470,-54160 -62420,0 -127250,51830 -127250,150210 0,77170 50100,139050 121410,139050 50620,0 83630,-25920 98340,-54810l1200 0 0 40070c0,83730 -43000,114350 -102510,114350 -36550,0 -64230,-10570 -84250,-23520l-10040 22340c21840,16490 57740,24780 90150,24780 31830,0 70110,-8850 96030,-33580 23580,-22400 38910,-58310 38910,-130890l0 -168490zm-28290 92530c0,9970 -1760,20570 -4730,30050 -14730,40610 -49480,63550 -87810,63550 -66540,0 -100120,-54760 -100120,-118360 0,-74830 41240,-123720 101310,-123720 46590,0 76030,30030 87790,64210 2990,8230 3560,17060 3560,27690l0 56580zm243320 117220l28270 0 0 -172610c0,-11820 610,-19460 3540,-28290 12370,-34770 45390,-63620 85440,-63620 57730,0 77770,45950 77770,97180l0 167340 28260 0 0 -170280c0,-105430 -71880,-118980 -98380,-118980 -21220,0 -40670,5860 -57180,16480 -16480,9430 -30000,24750 -38260,40650l-1190 0 0 -186750 -28270 0 0 418880zm395910 -282820l87180 282820 24760 0 55960 -156710c11770,-32390 22390,-64240 30650,-97230l1170 0c7640,31810 17680,62480 29450,96660l53590 157280 24180 0 94250 -282820 -28860 0 -50080 160270c-11220,34180 -20020,62450 -25940,88950l-1170 0c-7050,-26500 -15910,-55360 -27690,-89550l-54180 -159670 -26530 0 -56540 160820c-11210,32460 -21220,62510 -28290,88400l-1180 0c-6470,-27090 -14710,-55360 -24130,-88400l-47740 -160820 -28860 0zm755870 104880c0,-50060 -15910,-111320 -97800,-111320 -25320,0 -57140,7040 -83040,24110l8810 20660c20600,-14740 46550,-21210 71280,-21210 67170,-640 72480,55360 72480,83050l0 7660c-115490,-1170 -172640,38280 -172640,103680 0,37710 25930,77890 83060,77890 45350,0 76590,-25460 90730,-47230l1190 0 4120 40650 25920 0c-3530,-21820 -4110,-44770 -4110,-67180l0 -110760zm-28270 87180c0,4740 -620,11230 -2970,17120 -9430,27680 -36520,56530 -83640,56530 -29470,0 -56570,-18270 -56570,-58910 0,-67750 81310,-77160 143180,-75410l0 60670zm195010 -192060l104850 262200c2380,5880 3530,10010 3530,12340 0,2950 -1150,6510 -3530,12470 -14120,33580 -32960,57170 -47110,71320 -16500,15880 -35380,25890 -49500,31210l8860 23550c7060,-2370 27080,-10590 49470,-29460 37120,-32400 61290,-84800 95430,-172700l84860 -210930 -30030 0 -68970 183250c-8830,22960 -15900,45350 -21800,62420l-1180 0c-5280,-17660 -12950,-40640 -20600,-60670l-74220 -185000 -30060 0zm956920 246270c-22960,11200 -55970,18250 -89540,18250 -106610,0 -167900,-69490 -167900,-177320 10,-114280 65400,-183770 172590,-183770 33590,0 62490,7040 82500,17050l8860 -23570c-11810,-6440 -41270,-17650 -91950,-17650 -125440,0 -201460,89530 -201460,207360 10,140800 91910,202150 187920,202150 48940,0 87180,-10080 107240,-20090l-8260 -22410zm301660 -252710c-70140,0 -133730,53590 -133730,150210 0,88360 56570,145630 129620,145630 63000,0 135470,-45460 135470,-150910 0,-86050 -53020,-144930 -131360,-144930zm-610 23560c74830,0 103700,71250 103700,123130 10,72460 -46550,125460 -105440,125460 -57740,0 -103120,-53000 -103120,-123700 0,-60680 32420,-124890 104860,-124890zm323470 265700l28270 0 0 -156130c0,-9450 580,-18860 2380,-27120 7620,-45360 35350,-78910 74230,-78910 5280,0 9400,0 13540,1170l0 -27100c-3570,-620 -7690,-1170 -11770,-1170 -38330,0 -67780,28270 -80170,63600l-1760 0 -1160 -57160 -25920 0c1750,27710 2360,56570 2360,84840l0 197980zm298130 116730l28250 0 0 -162690 1190 0c19420,34170 55390,52540 96050,52540 68310,0 128410,-51940 128410,-152690 0,-83050 -48920,-143150 -121960,-143150 -48870,0 -83660,22920 -104260,60100l-1190 0 -1730 -53660 -27100 0c1730,27100 2340,54820 2340,90150l0 309400zm28250 -283490c0,-7620 2340,-16490 4130,-24130 12360,-46540 52450,-74810 93700,-74810 64200,0 99550,57120 99550,120770 0,75410 -37130,127820 -101930,127820 -43590,0 -81300,-28250 -93110,-71850 -1750,-7110 -2340,-14740 -2340,-22400l0 -55400zm414200 173340c15320,0 24710,-12510 24710,-26640 0,-15320 -9400,-26500 -23530,-26500 -14120,0 -24180,11180 -24180,26500 -570,14130 9470,26640 23000,26640z"/>
  </g>
 </g>
</svg>
